<?xml version="1.0" standalone="no"?>
<!DOCTYPE svg PUBLIC "-//W3C//DTD SVG 20010904//EN"
 "http://www.w3.org/TR/2001/REC-SVG-20010904/DTD/svg10.dtd">
<svg version="1.0" xmlns="http://www.w3.org/2000/svg"
 width="512.000000pt" height="512.000000pt" viewBox="0 0 512.000000 512.000000"
 preserveAspectRatio="xMidYMid meet">

<g transform="translate(0.000000,512.000000) scale(0.100000,-0.100000)"
fill="#000000" stroke="none">
<path d="M1669 5111 c-35 -11 -70 -30 -94 -51 -11 -10 -45 -21 -75 -24 -110
-14 -229 -90 -290 -186 -50 -77 -70 -156 -70 -271 0 -114 13 -139 73 -139 58
0 71 26 78 149 4 93 9 113 35 161 27 51 86 104 135 122 18 7 19 0 19 -272 0
-166 4 -300 11 -332 17 -82 74 -182 136 -238 118 -108 235 -136 523 -127 135
4 177 8 229 27 128 43 214 121 271 243 40 84 49 167 50 435 0 122 3 222 8 222
19 0 110 -93 139 -141 64 -106 64 -111 61 -791 l-3 -614 -30 -59 c-34 -66
-101 -125 -165 -144 -25 -7 -170 -11 -443 -11 l-405 0 -63 33 c-40 20 -75 48
-96 75 -53 70 -63 121 -63 332 0 181 -1 187 -22 207 -14 13 -44 23 -78 27
-105 14 -202 89 -234 184 -10 29 -16 81 -16 143 0 110 -11 144 -50 157 -37 14
-87 -9 -96 -43 -3 -14 -5 -81 -2 -148 3 -112 6 -128 35 -190 55 -115 159 -207
271 -236 l42 -12 0 -139 c0 -76 5 -163 11 -192 32 -153 145 -279 293 -329 49
-17 51 -19 54 -57 l3 -40 -198 -4 c-192 -3 -200 -4 -257 -31 -119 -55 -199
-146 -236 -266 -19 -61 -20 -96 -20 -1115 0 -1144 -1 -1116 55 -1213 41 -69
114 -133 195 -172 l75 -36 1065 -3 c704 -2 1081 1 1113 8 112 24 222 103 280
203 59 99 57 67 57 1213 0 1019 -1 1054 -20 1115 -37 120 -118 211 -236 266
-53 25 -73 28 -187 31 -123 4 -130 3 -153 -19 -29 -27 -31 -68 -5 -100 17 -22
29 -24 137 -30 66 -3 130 -11 144 -16 53 -23 106 -72 135 -124 l30 -54 0
-1075 c0 -1029 -1 -1077 -19 -1110 -31 -59 -96 -119 -154 -140 -51 -19 -79
-20 -1092 -20 -1013 0 -1041 1 -1092 20 -58 21 -123 81 -154 140 -18 33 -19
84 -22 1095 -2 947 -1 1064 13 1102 28 72 69 118 136 152 l62 31 174 0 173 0
0 -35 c0 -33 -4 -37 -47 -56 -116 -50 -214 -161 -253 -286 -19 -62 -20 -93
-20 -583 0 -479 1 -519 18 -539 26 -33 79 -31 109 3 l23 27 0 503 c0 589 -2
574 89 667 31 32 62 59 69 59 9 0 12 -31 12 -107 1 -214 29 -311 121 -408 86
-91 185 -135 305 -135 208 0 384 155 414 365 5 39 10 118 10 178 0 66 4 107
10 107 21 0 103 -86 128 -135 l27 -50 0 -780 0 -780 -27 -50 c-34 -65 -101
-127 -164 -151 -45 -17 -79 -19 -399 -19 -397 0 -410 2 -493 79 -71 66 -94
122 -101 248 -7 124 -22 152 -83 150 -55 -1 -68 -28 -68 -142 0 -162 42 -263
149 -363 66 -61 138 -99 219 -116 71 -15 683 -15 754 0 123 26 262 128 316
234 53 105 52 90 52 911 0 729 -1 765 -20 825 -37 123 -126 227 -237 280 -59
28 -63 32 -63 65 l0 34 195 0 c207 0 235 5 254 47 16 34 14 47 -10 77 l-20 26
-210 0 -210 0 3 41 c3 39 5 41 53 57 152 52 266 180 295 333 6 29 10 101 10
160 l0 109 73 0 c134 0 211 39 263 132 l29 53 0 340 c0 371 0 372 -60 443 -48
57 -97 76 -214 82 l-103 5 -22 61 c-59 162 -175 284 -326 344 -29 11 -71 36
-93 55 -74 63 -87 65 -521 64 -215 0 -403 -4 -417 -8z m815 -153 c58 -26 61
-41 64 -311 3 -263 -5 -363 -37 -425 -27 -52 -97 -117 -156 -144 -47 -22 -62
-23 -265 -23 -211 0 -216 1 -270 26 -77 36 -124 80 -157 147 l-28 57 0 311 c0
298 1 313 20 334 11 12 29 26 40 31 33 13 760 11 789 -3z m761 -542 c33 -33
37 -74 33 -389 l-3 -279 -33 -29 c-30 -27 -39 -29 -107 -29 l-75 0 0 375 0
375 80 0 c72 0 84 -3 105 -24z m-700 -1871 c0 -339 -2 -374 -19 -419 -23 -60
-76 -120 -130 -149 -58 -31 -184 -31 -241 0 -54 29 -99 78 -127 138 -22 49
-23 59 -26 414 -2 199 -1 369 2 377 5 12 50 14 273 12 l268 -3 0 -370z"/>
<path d="M3209 2352 c-33 -27 -30 -78 5 -109 26 -22 34 -23 186 -23 170 0 201
7 219 47 16 36 14 51 -14 78 -24 25 -27 25 -198 25 -155 0 -177 -2 -198 -18z"/>
<path d="M3205 1850 c-28 -31 -24 -79 9 -107 26 -22 33 -23 192 -23 l166 0 29
29 c34 35 36 59 8 95 l-20 26 -183 0 c-171 0 -184 -1 -201 -20z"/>
<path d="M3205 1350 c-25 -28 -23 -76 4 -103 21 -21 30 -22 197 -22 l176 0 24
28 c29 34 30 56 3 91 l-20 26 -183 0 c-171 0 -184 -1 -201 -20z"/>
<path d="M3205 850 c-25 -28 -23 -76 4 -103 21 -21 30 -22 197 -22 l176 0 24
28 c29 34 30 56 3 91 l-20 26 -183 0 c-171 0 -184 -1 -201 -20z"/>
</g>
</svg>
