<?xml version="1.0" standalone="no"?>
<!DOCTYPE svg PUBLIC "-//W3C//DTD SVG 20010904//EN"
 "http://www.w3.org/TR/2001/REC-SVG-20010904/DTD/svg10.dtd">
<svg version="1.0" xmlns="http://www.w3.org/2000/svg"
 width="512.000000pt" height="512.000000pt" viewBox="0 0 512.000000 512.000000"
 preserveAspectRatio="xMidYMid meet">

<g transform="translate(0.000000,512.000000) scale(0.100000,-0.100000)"
fill="#000000" stroke="none">
<path d="M4057 5109 c-242 -28 -483 -111 -695 -240 -120 -74 -223 -163 -447
-388 l-220 -221 260 -260 c143 -143 264 -260 270 -260 6 0 102 93 215 206 223
224 283 272 411 334 146 69 213 82 464 87 254 6 279 13 315 88 18 38 20 62 20
290 0 228 -2 252 -20 290 -13 26 -34 49 -59 63 -37 21 -50 22 -242 21 -112 -1
-235 -5 -272 -10z"/>
<path d="M2225 4169 c-11 -6 -81 -72 -155 -145 l-135 -134 -95 96 c-52 52
-107 102 -122 110 -35 18 -101 18 -136 0 -33 -18 -685 -672 -702 -704 -6 -13
-12 -44 -12 -69 0 -38 12 -64 86 -186 l85 -142 -429 -430 c-235 -236 -433
-440 -439 -452 -14 -27 -14 -83 -1 -119 6 -15 54 -72 107 -126 l96 -97 -114
-119 c-118 -123 -163 -188 -206 -292 -49 -123 -53 -172 -53 -726 0 -496 1
-516 20 -554 23 -45 80 -80 130 -80 50 0 107 35 130 80 19 38 20 58 20 548 0
560 2 579 62 679 17 29 76 96 130 150 l98 97 217 -216 c224 -221 301 -282 418
-331 101 -41 162 -52 295 -51 114 0 134 3 219 33 52 17 122 48 155 68 88 52
1372 1333 1386 1382 7 27 -6 127 -66 483 -41 248 -79 459 -85 471 -16 31 -739
755 -771 773 -32 16 -104 18 -133 3z m-62 -2115 c116 -58 214 -108 217 -111 2
-2 -131 -139 -295 -303 -251 -251 -311 -306 -365 -334 -108 -56 -206 -69 -315
-41 -97 25 -145 54 -235 142 l-85 82 275 276 275 275 5 -124 c4 -105 8 -129
26 -152 53 -71 121 -90 193 -52 74 38 81 63 81 270 0 98 2 178 5 178 3 0 101
-48 218 -106z"/>
<path d="M4499 3590 c-80 -42 -379 -556 -451 -775 -32 -97 -32 -233 0 -327 56
-163 180 -288 348 -350 85 -31 263 -31 348 0 168 62 292 187 348 350 32 94 32
230 0 327 -49 147 -178 392 -335 633 -62 96 -88 127 -118 142 -48 25 -93 25
-140 0z"/>
</g>
</svg>
