<?xml version="1.0" encoding="UTF-8"?>
<svg version="1.1" xmlns="http://www.w3.org/2000/svg" width="360" height="360">
<path d="M0 0 C28.90615658 25.6408466 46.43469592 63.37361262 48.92431641 101.80712891 C48.98619141 103.18964844 48.98619141 103.18964844 49.04931641 104.60009766 C49.11119141 105.93621094 49.11119141 105.93621094 49.17431641 107.29931641 C49.92457028 140.92006833 39.4334937 176.35052956 18.04931641 202.60009766 C17.62505371 203.12297363 17.20079102 203.64584961 16.76367188 204.18457031 C-0.83026493 225.75354932 -28.09115976 250.58964612 -56.95068359 254.60009766 C-61.19233659 253.64955855 -62.49994025 253.27621267 -64.95068359 249.60009766 C-65.20896912 247.29454041 -65.20896912 247.29454041 -65.22192383 244.55297852 C-65.23720375 243.010084 -65.23720375 243.010084 -65.25279236 241.4360199 C-65.25600243 239.76733604 -65.25600243 239.76733604 -65.25927734 238.06494141 C-65.28445349 235.70491307 -65.30985126 233.34488708 -65.33544922 230.98486328 C-65.36410018 227.26782938 -65.3881164 223.55083676 -65.40698242 219.83374023 C-65.42876505 216.24391484 -65.46823284 212.65459095 -65.50927734 209.06494141 C-65.50945107 207.41751198 -65.50945107 207.41751198 -65.5096283 205.73680115 C-65.61619886 197.34250877 -66.67964424 189.1284177 -71.63818359 182.10009766 C-73.95068359 178.7711891 -73.95068359 178.7711891 -73.95068359 176.60009766 C-73.24685547 176.46023437 -72.54302734 176.32037109 -71.81787109 176.17626953 C-51.81561434 172.11575918 -32.49080785 167.88618942 -19.70849609 150.56103516 C-15.16920202 143.59413326 -11.99365317 136.65369877 -9.95068359 128.60009766 C-9.72638672 127.72740234 -9.50208984 126.85470703 -9.27099609 125.95556641 C-5.60601053 108.40882045 -6.27335694 88.08758858 -15.64208984 72.44384766 C-16.91866599 70.64520902 -18.30049291 69.12616191 -19.82568359 67.53759766 C-22.06354552 64.44408264 -22.25096736 64.11533377 -21.82568359 60.60009766 C-21.55265668 59.26282299 -21.25865667 57.92975919 -20.95068359 56.60009766 C-18.80975414 45.11408925 -19.93775773 35.54606954 -23.95068359 24.60009766 C-36.76359157 24.8499948 -46.4519017 29.44021849 -57.23144531 35.9206543 C-63.40327006 39.6046463 -66.13474842 39.78418052 -73.20068359 38.22509766 C-91.58522986 34.21051306 -110.51510011 34.3833801 -128.98974609 37.84619141 C-129.99424805 38.0322998 -129.99424805 38.0322998 -131.01904297 38.22216797 C-132.88134308 38.58653103 -134.73291839 39.00445415 -136.58349609 39.42431641 C-140.93849681 39.65166563 -142.64479437 38.43205629 -146.20068359 35.97509766 C-156.40231149 29.23097455 -166.50492911 24.35821904 -178.95068359 24.60009766 C-179.43266822 25.84901379 -179.91114036 27.09928574 -180.38818359 28.35009766 C-180.65501953 29.04619141 -180.92185547 29.74228516 -181.19677734 30.45947266 C-182.821287 35.07207003 -183.13875631 39.28191136 -183.13818359 44.16259766 C-183.14390381 44.87496582 -183.14962402 45.58733398 -183.15551758 46.32128906 C-183.13665664 50.61094346 -182.64489455 54.3115926 -181.51318359 58.47509766 C-180.78789638 61.81141883 -180.71164441 63.1140271 -182.23583984 66.21337891 C-184.05379161 68.75696747 -185.98317958 71.17133233 -187.95068359 73.60009766 C-194.13816399 83.34249692 -195.47774134 94.66569311 -195.32568359 105.97509766 C-195.31625732 107.06781982 -195.30683105 108.16054199 -195.29711914 109.28637695 C-194.94919879 127.94516533 -189.63668843 145.38703769 -176.01318359 158.72509766 C-162.63525873 169.80264479 -146.57705035 173.14754111 -129.95068359 176.60009766 C-129.95068359 180.03592102 -130.88423876 180.90713557 -132.81787109 183.58447266 C-134.29570039 186.2139896 -134.99332668 188.89183496 -135.82568359 191.78759766 C-137.56431844 197.31837306 -137.56431844 197.31837306 -140.95068359 199.78759766 C-142.43568359 200.18978516 -142.43568359 200.18978516 -143.95068359 200.60009766 C-144.52818359 200.77283203 -145.10568359 200.94556641 -145.70068359 201.12353516 C-155.02439947 203.09834998 -163.99477115 202.29463709 -172.29833984 197.56884766 C-176.77641572 194.24491505 -179.81626334 190.16437704 -182.95068359 185.60009766 C-187.49019709 179.3030053 -191.30847934 174.15484029 -198.95068359 171.60009766 C-201.84720188 171.36038676 -201.84720188 171.36038676 -204.76318359 171.47509766 C-205.73900391 171.49314453 -206.71482422 171.51119141 -207.72021484 171.52978516 C-208.45626953 171.55298828 -209.19232422 171.57619141 -209.95068359 171.60009766 C-208.46905511 175.31644756 -206.47584261 176.91277034 -203.26318359 179.22509766 C-195.27473014 185.45240792 -191.16684646 192.83778172 -187.18505859 201.99072266 C-183.36495322 210.06613527 -178.07634893 215.15038576 -169.79199219 218.46337891 C-162.8869689 220.7325671 -156.5516366 220.95880796 -149.32568359 220.78759766 C-147.67632812 220.76729492 -147.67632812 220.76729492 -145.99365234 220.74658203 C-143.31213027 220.71160566 -140.63168286 220.66252838 -137.95068359 220.60009766 C-137.83442424 225.16238307 -137.76340951 229.72428693 -137.70068359 234.28759766 C-137.66716797 235.58117187 -137.63365234 236.87474609 -137.59912109 238.20751953 C-137.57978516 240.07827148 -137.57978516 240.07827148 -137.56005859 241.98681641 C-137.5286377 243.7071106 -137.5286377 243.7071106 -137.49658203 245.4621582 C-138.05335782 249.30959865 -139.14502075 250.94231076 -141.95068359 253.60009766 C-148.07650825 255.41998295 -154.39855944 252.71720774 -159.95068359 250.22509766 C-160.77028564 249.86569092 -161.5898877 249.50628418 -162.43432617 249.13598633 C-199.2060331 232.58570907 -227.76716283 202.64882078 -242.32568359 165.03759766 C-257.14671449 125.15383281 -254.45717489 83.11923692 -236.95068359 44.60009766 C-220.1008176 9.89004169 -188.58788413 -17.83491626 -152.32568359 -30.77490234 C-98.4922191 -48.93761743 -42.69224346 -36.92270184 0 0 Z " fill="#FFFFFF" transform="translate(281.95068359375,68.39990234375)"/>
</svg>
