<?xml version="1.0" standalone="no"?>
<!DOCTYPE svg PUBLIC "-//W3C//DTD SVG 20010904//EN"
 "http://www.w3.org/TR/2001/REC-SVG-20010904/DTD/svg10.dtd">
<svg version="1.0" xmlns="http://www.w3.org/2000/svg"
 width="512.000000pt" height="512.000000pt" viewBox="0 0 512.000000 512.000000"
 preserveAspectRatio="xMidYMid meet">

<g transform="translate(0.000000,512.000000) scale(0.100000,-0.100000)"
fill="#000000" stroke="none">
<path d="M2385 4190 c-772 -65 -1451 -529 -1791 -1225 -295 -606 -296 -1320
-1 -1915 l62 -125 127 -3 c71 -1 128 0 128 4 0 3 -15 32 -34 63 -65 107 -146
284 -185 405 -226 700 -53 1459 452 1975 512 523 1229 723 1924 536 762 -204
1319 -822 1440 -1598 24 -152 23 -462 -1 -602 -41 -246 -124 -479 -236 -671
-33 -57 -60 -106 -60 -109 0 -3 57 -4 128 -3 l127 3 62 125 c249 500 290 1104
112 1645 -49 149 -166 389 -253 518 -353 527 -901 874 -1516 961 -136 19 -359
27 -485 16z"/>
<path d="M2387 3869 c-84 -7 -247 -36 -256 -45 -2 -2 3 -31 12 -64 27 -96 20
-130 -28 -130 -32 0 -49 26 -69 103 -10 37 -20 67 -22 67 -16 0 -207 -76 -272
-109 l-83 -42 19 -32 c77 -125 152 -262 152 -278 0 -23 -26 -49 -49 -49 -26 0
-40 19 -129 172 l-79 138 -74 -51 c-87 -61 -186 -138 -213 -168 -19 -21 -19
-21 37 -80 61 -64 67 -79 39 -104 -31 -28 -54 -20 -113 39 l-56 56 -60 -69
c-60 -70 -141 -180 -162 -220 -10 -20 -2 -26 139 -107 150 -87 171 -107 151
-144 -24 -45 -31 -43 -224 69 -65 38 -122 69 -126 69 -21 0 -159 -337 -144
-350 4 -4 37 -15 73 -25 36 -9 71 -22 78 -27 18 -15 15 -52 -7 -72 -18 -16
-23 -16 -97 3 -43 11 -79 19 -80 18 -11 -11 -54 -305 -54 -368 0 -5 75 -9 168
-9 135 0 172 -3 190 -16 24 -17 29 -56 9 -73 -8 -6 -80 -12 -188 -13 l-174 -3
3 -85 c4 -75 35 -286 45 -296 2 -2 38 6 81 18 l78 21 21 -21 c17 -18 19 -26
11 -49 -8 -24 -20 -31 -81 -48 -40 -11 -75 -23 -78 -26 -13 -14 126 -349 145
-349 4 0 73 38 154 84 150 87 176 94 197 54 20 -37 -1 -57 -152 -144 -82 -47
-149 -88 -149 -90 0 -2 15 -27 33 -54 l32 -50 457 0 457 0 3 203 c3 202 3 204
30 244 16 24 44 49 70 62 43 20 56 21 509 21 529 0 522 0 576 -81 l28 -42 3
-204 3 -203 457 0 457 0 34 52 c40 61 53 46 -135 153 -135 77 -154 97 -135
134 23 42 45 36 201 -55 83 -47 152 -85 154 -83 23 25 146 319 146 347 0 6
-32 18 -70 27 -75 18 -100 35 -100 65 0 21 25 50 43 50 7 0 44 -9 84 -19 l72
-19 10 52 c15 74 28 170 36 259 l7 77 -179 0 c-189 0 -203 3 -203 46 0 49 18
54 206 54 l175 0 -7 78 c-7 85 -39 291 -47 298 -3 3 -39 -4 -80 -14 -67 -17
-78 -18 -96 -5 -28 19 -27 59 2 77 12 7 45 19 72 25 80 19 79 18 50 102 -34
96 -116 269 -127 269 -5 0 -71 -36 -147 -80 -78 -45 -150 -80 -165 -80 -32 0
-54 37 -38 66 6 11 76 57 156 103 80 46 146 86 146 88 0 13 -127 186 -176 241
l-56 63 -58 -56 c-32 -30 -66 -55 -74 -55 -18 0 -56 34 -56 51 0 6 25 36 55
68 30 32 55 62 54 67 -1 13 -123 114 -217 179 l-81 56 -24 -38 c-13 -21 -52
-89 -88 -151 -64 -112 -81 -129 -119 -117 -44 14 -36 49 41 183 40 70 79 137
87 149 13 21 11 23 -69 64 -78 39 -269 113 -274 107 -2 -2 -12 -36 -24 -77
-21 -77 -31 -91 -67 -91 -40 0 -49 24 -34 93 7 34 15 72 17 83 4 19 -1 23 -44
32 -47 10 -160 25 -275 37 l-58 5 0 -178 c0 -125 -4 -182 -12 -190 -19 -19
-66 -15 -78 7 -6 12 -10 92 -10 190 0 157 -1 171 -17 170 -10 -1 -58 -5 -106
-10z m-210 -430 c6 -6 118 -276 250 -599 l238 -588 43 -21 c63 -31 125 -93
157 -158 25 -50 29 -70 30 -143 0 -77 -3 -92 -33 -152 -36 -73 -87 -124 -161
-160 -66 -33 -216 -33 -282 0 -74 36 -125 87 -161 159 -29 59 -33 77 -33 148
0 62 6 91 24 132 l23 53 -90 652 c-63 453 -87 658 -81 670 11 20 59 24 76 7z"/>
<path d="M2255 2965 c9 -75 95 -700 100 -731 l5 -31 57 29 c31 15 68 28 82 28
14 0 31 4 38 8 8 5 -31 111 -133 362 -79 194 -146 359 -149 364 -2 6 -3 -7 0
-29z"/>
<path d="M2490 2155 c-170 -53 -224 -269 -99 -394 109 -109 292 -89 372 41 82
133 14 308 -137 353 -60 18 -77 18 -136 0z"/>
<path d="M2071 1323 c-20 -25 -21 -36 -19 -212 l3 -186 505 0 505 0 0 193 c0
192 0 194 -24 213 -22 18 -45 19 -486 19 l-464 0 -20 -27z m829 -72 c14 -28
13 -38 -10 -61 -19 -19 -33 -20 -330 -20 -297 0 -311 1 -330 20 -23 23 -24 33
-10 61 10 18 25 19 340 19 315 0 330 -1 340 -19z m-6 -167 c21 -21 20 -40 -4
-64 -19 -19 -33 -20 -330 -20 -297 0 -311 1 -330 20 -24 24 -25 38 -3 62 15
17 39 18 334 18 275 0 320 -2 333 -16z"/>
</g>
</svg>
